<svg xmlns="http://www.w3.org/2000/svg" width="18.02" height="18" viewBox="0 0 18.02 18">
  <defs>
    <style>
      .cls-1, .cls-2 {
        fill: #0f0f0f;
      }

      .cls-2 {
        fill-rule: evenodd;
      }
    </style>
  </defs>
  <g id="feedback" transform="translate(-1 -1)">
    <path id="Path_4" data-name="Path 4" class="cls-1" d="M13.219,1a2.449,2.449,0,0,1,2.444,2.455.815.815,0,1,1-1.629,0,.816.816,0,0,0-.815-.818H3.444a.816.816,0,0,0-.815.818V16.545a.816.816,0,0,0,.815.818h9.775a.816.816,0,0,0,.815-.818v-.818a.815.815,0,1,1,1.629,0v.818A2.449,2.449,0,0,1,13.219,19H3.444A2.449,2.449,0,0,1,1,16.545V3.455A2.449,2.449,0,0,1,3.444,1Z"/>
    <path id="Path_5" data-name="Path 5" class="cls-2" d="M18.922,7.832a.641.641,0,0,0-.906,0l-6.5,6.505a.834.834,0,0,0-.233.453l-.137.823.823-.137a.834.834,0,0,0,.453-.233l6.5-6.505A.64.64,0,0,0,18.922,7.832Zm-2.086-1.18A2.309,2.309,0,1,1,20.1,9.918l-6.5,6.5a2.5,2.5,0,0,1-1.358.7l-.823.137a1.669,1.669,0,0,1-1.92-1.92l.137-.823a2.5,2.5,0,0,1,.7-1.358Z" transform="translate(-1.759 -1.034)"/>
    <path id="Path_6" data-name="Path 6" class="cls-1" d="M5,6.834A.834.834,0,0,1,5.834,6h6.675a.834.834,0,0,1,0,1.669H5.834A.834.834,0,0,1,5,6.834Z" transform="translate(-0.781 -0.917)"/>
    <path id="Path_7" data-name="Path 7" class="cls-1" d="M5,10.834A.834.834,0,0,1,5.834,10H9.172a.834.834,0,0,1,0,1.669H5.834A.834.834,0,0,1,5,10.834Z" transform="translate(-0.751 -1.651)"/>
    <path id="Path_8" data-name="Path 8" class="cls-1" d="M5,14.834A.834.834,0,0,1,5.834,14h.834a.834.834,0,1,1,0,1.669H5.834A.834.834,0,0,1,5,14.834Z" transform="translate(-0.737 -2.385)"/>
  </g>
</svg>
