<svg xmlns="http://www.w3.org/2000/svg" width="12.018" height="18" viewBox="0 0 12.018 18">
  <defs>
    <style>
      .cls-1 {
        fill: #333;
        fill-rule: evenodd;
      }
    </style>
  </defs>
  <path id="Path_3" data-name="Path 3" class="cls-1" d="M22.018,6.851V17.529A1.754,1.754,0,0,1,20.3,19.318H18.584v.894H16.438V22H15.58V20.212H13.434v-.894H11.717A1.754,1.754,0,0,1,10,17.529V6.851a1.754,1.754,0,0,1,1.717-1.788h2.575l.486-.521a1.67,1.67,0,0,1,2.462,0l.486.521H20.3A1.754,1.754,0,0,1,22.018,6.851Zm-4.292-.894a.842.842,0,0,1-.616-.271l-.486-.521a.835.835,0,0,0-1.231,0l-.486.521a.842.842,0,0,1-.616.271H11.717a.877.877,0,0,0-.858.894v8.43c.559-.009,1.087.007,1.588.027l.228.009c.551.022,1.065.042,1.567.031a6.114,6.114,0,0,0,3.266-.886,2.959,2.959,0,0,1,3.255-.1,3.618,3.618,0,0,1,.4.28V6.851a.877.877,0,0,0-.858-.894Z" transform="translate(-10 -4)"/>
</svg>
